<svg xmlns="http://www.w3.org/2000/svg" width="259.41" height="192.1" viewBox="0 0 259.41 192.1">
  <g id="Group_56" data-name="Group 56" transform="translate(-77.59 -114)">
    <path id="Path_165" data-name="Path 165" d="M33.66,27.1Q15.3,27.1,15.3,7.21V-34q0-7.14-2.3-10.8A9.839,9.839,0,0,0,6.12-49.3a1.748,1.748,0,0,1-1.53-1.87v-9.69a1.623,1.623,0,0,1,1.53-1.87q9.18-1.53,9.18-15.13v-40.36q0-20.06,18.36-20.06H44.54a1.5,1.5,0,0,1,1.7,1.7v10.88a1.5,1.5,0,0,1-1.7,1.7H40.46a7.693,7.693,0,0,0-6.545,3.06q-2.295,3.06-2.3,8.84v35.94q0,7.82-2.125,12.58a14.626,14.626,0,0,1-6.545,7.14q-.85.34,0,.85Q31.62-51,31.62-35.87V.92q0,5.78,2.3,8.925A7.617,7.617,0,0,0,40.46,12.99h4.08a1.5,1.5,0,0,1,1.7,1.7V25.4a1.5,1.5,0,0,1-1.7,1.7Z" transform="translate(73 279)" fill="#fff"/>
    <text id="open_" transform="translate(116 214)" fill="#fff" font-size="100" font-family="BarlowCondensed-Bold, Barlow Condensed" font-weight="700" letter-spacing="0.002em"><tspan x="0" y="0">open_</tspan></text>
    <text id="function" transform="translate(118 285)" fill="#fff" font-size="71" font-family="BarlowCondensed-ExtraBold, Barlow Condensed" font-weight="800"><tspan x="0" y="0">function</tspan></text>
  </g>
</svg>
