<svg xmlns="http://www.w3.org/2000/svg" width="312.74" height="168.48" viewBox="0 0 312.74 168.48">
  <g id="Group_18" data-name="Group 18" transform="translate(-648.26 -347.44)">
    <text id="open_" transform="translate(709 425)" fill="white" font-size="76" font-family="Montserrat-ExtraBold, Montserrat" font-weight="800"><tspan x="0" y="0">open_</tspan></text>
    <text id="function" transform="translate(701 489)" fill="white" font-size="57" font-family="Montserrat-ExtraBold, Montserrat" font-weight="800" letter-spacing="0.002em"><tspan x="0" y="0">function</tspan></text>
    <path id="Path_12" data-name="Path 12" d="M41.94-65.88q0,7.38-2.34,11.16a12.965,12.965,0,0,1-7.56,5.4,12.965,12.965,0,0,1,7.56,5.4q2.34,3.78,2.34,11.16V6.66q0,14.04,13.32,14.04h4.5V34.92H51.84q-13.5,0-20.34-6.75T24.66,8.28v-41.4q0-9-8.1-9h-6.3v-14.4h6.3q8.1,0,8.1-9v-41.4q0-13.14,6.84-19.89t20.34-6.75h7.92v14.22h-4.5q-13.32,0-13.32,14.04Z" transform="translate(638 481)" fill="white"/>
  </g>
</svg>
